<svg xmlns="http://www.w3.org/2000/svg" xmlns:xlink="http://www.w3.org/1999/xlink" viewBox="0 0 64 64" ><radialGradient id="slime" fx="30%" fy="18%"><stop stop-color="#71c837" offset="1%" stop-opacity="0.10"/><stop stop-color="#71c837" offset="25%" stop-opacity="0.40"/><stop stop-color="#71c837" offset="45%" stop-opacity="0.60"/><stop stop-color="#71c837" offset="100%" stop-opacity="0.80"/></radialGradient><g style=" fill-opacity:1;stroke-width:0.2;stroke-linejoin:round;stroke:#444;font-family:'Courier New', Courier, monospace;font-weight:bold;font-size:4;"><g transform="translate(37,33)"><path fill="#888" d="M6.00 6.48 L10.70 6.20 L9.91 7.65 L7.09 7.81 Z"/><path fill="#333" d="M9.91 7.65 L10.70 6.20 L9.92 10.27 L9.44 10.09 Z"/><path fill="#888" d="M6.00 6.48 L7.09 7.81 L6.62 10.25 L5.22 10.54 Z"/><path fill="#333" d="M6.62 10.25 L9.44 10.09 L5.22 10.54 L9.92 10.27 Z"/><path fill="#555" stroke="#555" stroke-width="0.7" d="M7.09 7.81 L9.91 7.65 L9.44 10.09 L6.62 10.25 Z"/><text x="8.6" y="15" fill="#eee" stroke-width="0" transform="skewX(-10),scale(1,0.65)">E</text></g><g transform="translate(29,32)"><path fill="#888" d="M6.64 4.55 L10.42 5.18 L8.78 4.80 L6.52 4.43 Z"/><path fill="#555" d="M8.78 4.80 L10.42 5.18 L7.48 8.01 L7.02 6.50 Z"/><path fill="#AAA" d="M6.64 4.55 L6.52 4.43 L4.76 6.12 L3.71 7.38 Z"/><path fill="#555" d="M4.76 6.12 L7.02 6.50 L7.48 8.01 L3.71 7.38 Z"/><path fill="#666" stroke="#555" d="M6.52 4.43 L8.78 4.80 L7.02 6.50 L4.76 6.12 Z"/><text x="12.4" y="9.9" fill="#eee" stroke-width="0" transform="skewX(-50),scale(1,0.65)">D</text></g><g transform="translate(31,22)"><path fill="#888" d="M5.56 3.83 L10.35 5.29 L9.19 5.59 L6.37 4.77 Z"/><path fill="#333" d="M10.35 5.29 L8.88 9.76 L8.19 8.21 L9.19 5.59 Z"/><path fill="#AAA" d="M5.56 3.93 L6.37 4.77 L5.40 7.39 L4.09 8.30 Z"/><path fill="#333" d="M5.40 7.39 L8.19 8.21 L8.88 9.76 L4.19 8.40 Z"/><path fill="#555" stroke="#555" stroke-width="0.7" d="M6.37 4.87 L9.29 5.69 L8.29 8.31 L5.40 7.39 Z"/><text x="8.5" y="7.85" fill="#eee" stroke-width="0" transform="skewX(-20)">C</text></g><g transform="translate(38,26)"><path fill="#333" d="M8.83 4.66 L9.32 4.18 L10.83 8.32 L9.73 7.14 Z"/><path fill="#888" d="M4.61 5.09 L9.32 4.18 L8.83 4.66 L6 5.21 Z"/><path fill="#AAA" d="M4.61 5.09 L6 5.21 L8.19 8.21 L6.12 9.21 Z"/><path fill="#333" d="M6.91 7.69 L9.73 7.14 L10.83 8.32 L6.12 9.21 Z"/><path fill="#555" stroke="#555" stroke-width="0.7" d="M6 5.21 L8.83 4.66 L9.73 7.14 L6.91 7.69 Z"/><text x="5" y="7.25" fill="#eee" stroke-width="0" transform="skewX(15)">O</text></g></g><path fill="url(#slime)" stroke="black" stroke-width="1" stroke-opacity="0.5" d="M48 48 Q62 48 54 30 Q50 22 32 20 Q16 18 10 30 Q2 48 16 48 Z" /><g id="ojos" style="fill:#000;fill-opacity:0.6;width:2;height:10;" ><rect id="ojo1" width="2" height="10" x="20" y="30" rx="1" ry="1" /><rect id="ojo2" width="2" height="10" x="30" y="30" rx="1" ry="1" /></g><animate xlink:href="#ojo1" attributeName="height" values="10; 10; 0; 10; 10" keyTimes="0; 0.48; 0.5; 0.51; 1" dur="10s" repeatCount="indefinite"/><animate xlink:href="#ojo2" attributeName="height" values="10; 10; 0; 10; 10" keyTimes="0; 0.48; 0.5; 0.51; 1" dur="10s" repeatCount="indefinite"/><animate xlink:href="#ojo1" attributeName="y" values="30; 30; 35; 30; 30" keyTimes="0; 0.48; 0.5; 0.51; 1" dur="10s" repeatCount="indefinite"/><animate xlink:href="#ojo2" attributeName="y" values="30; 30; 35; 30; 30" keyTimes="0; 0.48; 0.5; 0.51; 1" dur="10s" repeatCount="indefinite"/></svg>
